# xmcd CD database file
#
# Track frame offsets:
#	150
#	19460
#	39565
#	58167
#	78500
#	100157
#	121962
#	142635
#	164475
#	185405
#	205140
#
# Disc length: 2995 seconds
#
# Revision: 0
# Processed by: cddbd v1.4PL0 Copyright (c) Steve Scherf et al.
# Submitted via: CDex 1.51
#
DISCID=930bb10b
DTITLE=Lynn Cannon - Walk In The Park
DYEAR=2001
DGENRE=Jazz
TTITLE0=Walk In The Park
TTITLE1=Let's Ride
TTITLE2=Treopia (TLC)
TTITLE3=In The Pocket
TTITLE4=Share My World
TTITLE5=Sultry Nights
TTITLE6=Cruising
TTITLE7='88 Keys To Heaven
TTITLE8=Can You Feel Me
TTITLE9=Makeda
TTITLE10=In The Pocket (Remix)
EXTD=YEAR: 2001
EXTT0=
EXTT1=
EXTT2=
EXTT3=
EXTT4=
EXTT5=
EXTT6=
EXTT7=
EXTT8=
EXTT9=
EXTT10=
PLAYORDER=
